<?xml version="1.0" encoding="UTF-8"?><svg id="Layer_1" xmlns="http://www.w3.org/2000/svg" viewBox="0 0 360 360"><defs><style>.cls-1{fill:#fff;}</style></defs><rect width="360" height="360"/><path class="cls-1" d="m64.54,109.42h46.5l33.64,56.89,32.9-56.89h45.02l-54.42,86.57,55.9,88.79h-46.5l-34.13-58.87-34.13,58.87h-45.02l55.41-89.04-55.16-86.32Z"/><path class="cls-1" d="m252.22,152.64c-9.48-11.06-13.53-20.92-13.53-30.68,0-5.77.61-9.38,1.41-12.71-4.64,9.85-6.24,17.22-6.24,24.16,0,36.78,33.73,41.51,33.73,67.55,0,6.29-3.33,14.82-14.59,30.82,33.91-45.27,42.55-61.54,42.55-72.85,0-31.62-33.59-36.92-33.59-72.47,0-8.12,4.64-17.87,13.32-30.63,0,0-8.25,11.61-12.71,17.81-15.87,22.09-22,50.77-10.35,79.01Z"/></svg>